PathFileType	4	(X/Y/Z)	OpenSim_Sub06_CSStiffKnee_Magnet.trc
DataRate	CameraRate	NumFrames	NumMarkers	Units	OrigDataRate	OrigDataStartFrame	OrigNumFrames
100	100	16	8	m	100	896	7164
Frame#	Time	torso_imu_offset_imu	pelvis_imu_offset_imu	tibia_r_imu_offset_imu	femur_r_imu_offset_imu	tibia_l_imu_offset_imu	femur_l_imu_offset_imu	toes_r_imu_offset_imu	toes_l_imu_offset_imu
				X1	Y1	Z1	X2	Y2	Z2	X3	Y3	Z3	X4	Y4	Z4	X5	Y5	Z5	X6	Y6	Z6	X7	Y7	Z7	X8		Y8	Z8	

896	8.95000000	-0.95078984	-0.07310185	0.15389084	-0.43760160	0.13597629	-0.83583269	-0.46702175	-0.68249753	-0.14135346	-0.67410486	-0.45403470	0.11580900	-0.72713057	0.38117513	-0.03808144	-0.51708049	0.11246485	0.30849274	-0.68140115	-0.31063960	-0.40651076	-0.68848419	-0.06254241	-0.45865878
897	8.96000000	-0.95073594	-0.06953632	0.15442356	-0.43410156	0.13544087	-0.83389420	-0.46423591	-0.67878733	-0.14663121	-0.67058109	-0.45961290	0.11880756	-0.73912387	0.35394371	-0.03912555	-0.51698586	0.11685100	0.30719514	-0.68608273	-0.31545272	-0.40546892	-0.68141447	-0.06953106	-0.47736228
898	8.97000000	-0.94822133	-0.06576441	0.15007874	-0.43606656	0.13524824	-0.83153640	-0.45860338	-0.68192697	-0.15008254	-0.67233425	-0.47106524	0.11649155	-0.74797893	0.32959078	-0.03959795	-0.51478821	0.12180227	0.30780197	-0.68493996	-0.32261941	-0.40819287	-0.66314580	-0.07506222	-0.49384903
899	8.98000000	-0.94943203	-0.06200600	0.15158565	-0.43695355	0.13672557	-0.83133828	-0.44869922	-0.68241093	-0.14686384	-0.66942951	-0.47749562	0.11105510	-0.76103981	0.30946879	-0.03737763	-0.51210900	0.12176618	0.30571634	-0.68611184	-0.32323196	-0.40847183	-0.65301799	-0.08478042	-0.50691683
900	8.99000000	-0.94991243	-0.06143749	0.15199595	-0.42679152	0.14449394	-0.82267797	-0.44836540	-0.68918411	-0.15171640	-0.65952476	-0.48354543	0.11209952	-0.77035293	0.29276838	-0.03548430	-0.51210106	0.12380987	0.30445092	-0.68650390	-0.32816060	-0.40343435	-0.63568375	-0.09768834	-0.52017262
901	9	-0.95343051	-0.05492362	0.14679352	-0.42876594	0.15187875	-0.82706963	-0.43627690	-0.69055549	-0.15335833	-0.65753147	-0.48456459	0.11281098	-0.77579122	0.27925680	-0.03625819	-0.51539718	0.12345077	0.30980768	-0.68625460	-0.33786836	-0.40060057	-0.62346027	-0.10587587	-0.52987202
902	9.01000000	-0.94776173	-0.05679177	0.14698301	-0.42682959	0.15537269	-0.83053451	-0.42815605	-0.69859480	-0.15527398	-0.65342826	-0.49009561	0.11412838	-0.77859036	0.25806026	-0.02794172	-0.51238054	0.12353773	0.31172157	-0.69254538	-0.34414703	-0.40034453	-0.62417591	-0.12019696	-0.53614833
903	9.02000000	-0.95093681	-0.05111996	0.14595856	-0.43245086	0.15655428	-0.82309759	-0.42869311	-0.70329930	-0.15777777	-0.65868005	-0.49337370	0.11227386	-0.78129189	0.24700791	-0.02072285	-0.51022135	0.11872217	0.31990790	-0.69199950	-0.35195496	-0.40202047	-0.61388651	-0.12531313	-0.54287790
904	9.03000000	-0.95028779	-0.04930164	0.14237685	-0.42917835	0.16106756	-0.82308553	-0.41920500	-0.70718922	-0.15789877	-0.64987878	-0.50154667	0.11723235	-0.78452971	0.23977339	-0.02026937	-0.50823222	0.11170490	0.32251530	-0.69155305	-0.35839565	-0.40347728	-0.61248600	-0.13314979	-0.54049630
905	9.04000000	-0.95054604	-0.05059548	0.14405233	-0.42693668	0.16721607	-0.82611467	-0.41360009	-0.70640689	-0.15373244	-0.65149814	-0.50352948	0.12285640	-0.78418614	0.23958965	-0.01492669	-0.50843414	0.10839701	0.32959686	-0.69485097	-0.36592450	-0.39637292	-0.61755222	-0.14076886	-0.53460683
906	9.05000000	-0.95011590	-0.04424378	0.14012476	-0.42283528	0.16506873	-0.82729646	-0.40660903	-0.71341354	-0.15943079	-0.64598709	-0.50505535	0.12611640	-0.77891089	0.24141376	-0.01179047	-0.50733868	0.10017744	0.33736705	-0.69528878	-0.37380451	-0.38871201	-0.62046471	-0.14514519	-0.53354099
907	9.06000000	-0.94794879	-0.04034951	0.14455034	-0.42635129	0.17241843	-0.82347466	-0.39738554	-0.71667506	-0.16528644	-0.64089390	-0.51176553	0.12767783	-0.77383424	0.24621323	-0.00835696	-0.50545638	0.09033316	0.34467386	-0.69979175	-0.38114390	-0.38451987	-0.61998616	-0.14828690	-0.52008009
908	9.07000000	-0.94645900	-0.04288242	0.13758884	-0.43326577	0.17641438	-0.81665042	-0.38605080	-0.72239040	-0.16299439	-0.64432359	-0.51454658	0.12199870	-0.77669893	0.25685421	-0.00349705	-0.50426487	0.07524358	0.35262950	-0.69918712	-0.38350265	-0.38095072	-0.63013958	-0.14922164	-0.50877749
909	9.08000000	-0.95041798	-0.04224726	0.13605287	-0.42851871	0.17500915	-0.81348252	-0.37277871	-0.72984041	-0.16475123	-0.63868083	-0.51357812	0.12578272	-0.77074508	0.26321460	0.00069739	-0.50324835	0.07251221	0.36665500	-0.70053561	-0.39605365	-0.36415737	-0.64816025	-0.13914669	-0.48804445
910	9.09000000	-0.95123704	-0.04300855	0.13410657	-0.42784583	0.18647427	-0.81388395	-0.36181339	-0.73397534	-0.16576249	-0.63587245	-0.51575602	0.12729020	-0.77037334	0.27766579	0.01459508	-0.49939176	0.06823763	0.36940778	-0.70918658	-0.40433354	-0.36429435	-0.66013781	-0.11691317	-0.46971473
911	9.10000000	-0.94652961	-0.04048651	0.13447084	-0.43458694	0.18721206	-0.81036428	-0.35138677	-0.74045176	-0.17370853	-0.63611685	-0.52040987	0.13182311	-0.76354926	0.29149879	0.02281164	-0.49164786	0.06301735	0.37551943	-0.70830868	-0.41383580	-0.35673550	-0.67883020	-0.11378476	-0.45623435
